<svg viewBox="0 0 584 334" xmlns="http://www.w3.org/2000/svg" clip-rule="evenodd" stroke-linejoin="round" stroke-miterlimit="2"><path d="M510.386 23.231c13.432 0 24.362 10.843 24.362 24.171v248.099c0 13.327-10.929 24.171-24.362 24.171H72.388c-13.433 0-24.362-10.843-24.362-24.171V47.402c0-13.328 10.928-24.171 24.362-24.171h437.998Zm0-4.81H72.388c-16.132 0-29.21 12.975-29.21 28.981v248.099c0 16.007 13.078 28.981 29.21 28.981h437.998c16.133 0 29.21-12.974 29.21-28.981V47.402c0-16.006-13.078-28.981-29.21-28.981Z" fill="#00b5e5" shape-rendering="geometricPrecision"/><path d="M101.547 248.317v-43.958H88.651v-13.605h41.481v13.605h-12.897v43.958h-15.688Zm36.253 0v-57.563h16.396c6.421 0 10.897.296 13.426.886 2.53.589 4.713 1.579 6.547 2.968 2.071 1.572 3.664 3.577 4.777 6.015 1.114 2.438 1.672 5.126 1.672 8.06 0 4.457-1.094 8.081-3.283 10.872-2.19 2.792-5.381 4.646-9.575 5.565l15.688 23.196h-17.733l-13.211-22.53v22.53H137.8v.001Zm14.705-30.353h2.909c3.382 0 5.851-.576 7.411-1.731 1.56-1.152 2.34-2.961 2.34-5.427 0-2.884-.726-4.933-2.182-6.152-1.453-1.219-3.899-1.829-7.333-1.829h-3.145v15.139Zm30.157 30.353 19.857-57.563h19.659l19.895 57.563h-15.61l-2.91-10.301h-22.294l-2.987 10.301h-15.61Zm21.979-21.507h15.61l-5.858-18.991c-.183-.576-.432-1.507-.747-2.792l-1.218-4.953c-.325 1.352-.66 2.702-1.003 4.05a121.384 121.384 0 0 1-1.003 3.695l-5.781 18.991Zm42.937 21.507v-57.563h15.137l21.743 29.608c.42.603 1.108 1.815 2.064 3.636.956 1.822 2.013 3.992 3.166 6.508a119.388 119.388 0 0 1-.687-6.37 64.49 64.49 0 0 1-.217-4.954v-28.428h15.059v57.563h-15.059l-21.743-29.723c-.447-.604-1.149-1.815-2.104-3.638-.957-1.822-1.999-3.965-3.127-6.429.315 2.413.544 4.547.689 6.41.134 1.648.206 3.3.216 4.953v28.427h-15.137Zm71.167-18.597c2.333 2.649 4.632 4.626 6.9 5.938 2.267 1.311 4.528 1.966 6.784 1.966 2.096 0 3.819-.564 5.169-1.692 1.35-1.126 2.025-2.556 2.025-4.286 0-1.912-.584-3.387-1.749-4.422-1.168-1.036-3.809-2.103-7.924-3.205-5.634-1.519-9.62-3.5-11.952-5.938-2.334-2.437-3.499-5.778-3.499-10.027 0-5.505 1.841-9.992 5.525-13.465 3.682-3.473 8.458-5.211 14.331-5.211 3.171 0 6.179.426 9.023 1.278 2.844.852 5.538 2.143 8.08 3.872l-4.915 11.285c-1.782-1.519-3.611-2.667-5.484-3.441-1.875-.772-3.73-1.159-5.564-1.159-1.887 0-3.421.453-4.6 1.357-1.18.903-1.77 2.063-1.77 3.478 0 1.441.518 2.597 1.554 3.46 1.036.864 3.035 1.691 5.995 2.479l.707.195c6.396 1.731 10.604 3.631 12.622 5.702 1.362 1.417 2.399 3.113 3.106 5.092.707 1.979 1.063 4.175 1.063 6.585 0 6.11-2.005 11.017-6.017 14.728-4.011 3.707-9.358 5.561-16.041 5.561-4.01 0-7.66-.681-10.951-2.044-3.291-1.363-6.454-3.499-9.497-6.408l7.079-11.678Zm44.233 18.597v-57.563h35.269v12.622h-19.974v9.987h18.834v12.347h-18.834v22.607h-15.295Zm43.801 0v-57.563h35.269v12.622h-19.973v9.987h18.834v12.347h-18.834v9.711h19.973v12.895h-35.269v.001Zm45.649 0v-57.563h16.397c6.423 0 10.897.296 13.427.886 2.529.589 4.712 1.579 6.547 2.968 2.072 1.572 3.662 3.577 4.778 6.015 1.113 2.438 1.671 5.126 1.671 8.06 0 4.457-1.095 8.081-3.283 10.872-2.189 2.792-5.38 4.646-9.574 5.565l15.687 23.196h-17.732l-13.212-22.53v22.53h-14.706v.001Zm14.706-30.353h2.91c3.381 0 5.852-.576 7.41-1.731 1.559-1.152 2.34-2.961 2.34-5.427 0-2.884-.728-4.933-2.182-6.152-1.454-1.219-3.899-1.829-7.332-1.829h-3.146v15.139Z" fill="#00afd8" shape-rendering="geometricPrecision"/><path d="m268.575 97.173 10.449 39.528c.492 1.78.947 3.635 1.363 5.566.417 1.931.851 4.146 1.307 6.644a528.31 528.31 0 0 1 1.447-7.298c.397-1.912.786-3.55 1.164-4.912l9.768-39.528h22.89l-23.513 83.146h-21.013l-10.28-35.496c-.38-1.251-1.003-3.692-1.874-7.327-.38-1.627-.682-2.896-.908-3.805-.19.795-.455 1.913-.796 3.351-.87 3.672-1.533 6.267-1.987 7.781l-10.11 35.496h-21.07l-23.456-83.146h22.887l9.542 39.755c.454 2.045.899 4.09 1.334 6.134.435 2.044.843 4.146 1.221 6.304.358-1.669.727-3.335 1.108-4.999a462.502 462.502 0 0 1 1.789-7.44l10.451-39.755h18.287v.001Zm56.793 83.146V97.173h22.888v83.146h-22.888Zm41.176.001V97.173h23.682c9.275 0 15.74.425 19.394 1.277 3.654.851 6.806 2.282 9.457 4.287 2.991 2.272 5.291 5.169 6.901 8.69 1.609 3.522 2.413 7.403 2.413 11.643 0 6.437-1.58 11.671-4.741 15.704-3.163 4.032-7.771 6.71-13.829 8.036l22.661 33.509h-25.615l-19.082-32.543v32.544h-21.241Zm21.241-43.845h4.202c4.885 0 8.453-.833 10.706-2.499 2.253-1.666 3.379-4.279 3.379-7.838 0-4.164-1.05-7.128-3.152-8.888-2.102-1.76-5.632-2.641-10.593-2.641h-4.542v21.866Zm53.329 43.844V97.173h50.944v18.231h-28.851v14.426h27.204v17.833h-27.204v14.028h28.851v18.628h-50.944Z" fill="#006e90" shape-rendering="geometricPrecision"/><path d="M89.335 96.564h103.736v16.464H89.335V96.564Zm0 31.957h103.736v16.464H89.335v-16.464Zm0 34.864h103.736v16.464H89.335v-16.464Z" fill="url(#a)"/><defs><linearGradient id="a" x1="0" y1="0" x2="1" y2="0" gradientUnits="userSpaceOnUse" gradientTransform="translate(89.335 104.796) scale(103.736)"><stop offset="0" stop-color="#41e700" stop-opacity="0"/><stop offset=".74" stop-color="#3acd00"/><stop offset=".78" stop-color="#36be00"/><stop offset=".93" stop-color="#299100"/><stop offset="1" stop-color="#248000"/></linearGradient></defs></svg>